RBDS015runT35_grf
version=1
nRows=24
nColumns=19
inDegrees=no
endheader
time	ground_force_r_vx	ground_force_r_vy	ground_force_r_vz	ground_force_r_px	ground_force_r_py	ground_force_r_pz	ground_force_r_mx	ground_force_r_my	ground_force_r_mz	ground_force_l_vx	ground_force_l_vy	ground_force_l_vz	ground_force_l_px	ground_force_l_py	ground_force_l_pz	ground_force_l_mx	ground_force_l_my	ground_force_l_mz
     22.49800000	    101.85761715	    210.44873745	     -3.37271070	      1.79434198	      0.00000000	      1.06710819	     -0.00000000	     -0.88824598	      0.00000000	      0.00000000	      0.00000000	      0.00000000	      0.00000000	      0.00000000	      0.00000000	      0.00000000	      0.00000000	      0.00000000
     22.49900000	     98.26446603	    199.35758058	     -3.78010326	      1.79340413	      0.00000000	      1.06684121	     -0.00000000	     -0.59942955	     -0.00000000	      0.00000000	      0.00000000	      0.00000000	      0.00000000	      0.00000000	      0.00000000	      0.00000000	      0.00000000	      0.00000000
     22.50000000	     94.67131491	    188.26642372	     -4.18749582	      1.79246628	      0.00000000	      1.06657423	     -0.00000000	     -0.31061312	     -0.00000000	      0.00000000	      0.00000000	      0.00000000	      0.00000000	      0.00000000	      0.00000000	      0.00000000	      0.00000000	      0.00000000
     22.50100000	     91.23488744	    178.18902735	     -4.59822928	      1.79169915	      0.00000000	      1.06628921	     -0.00000000	     -0.01232045	     -0.00000000	      0.00000000	      0.00000000	      0.00000000	      0.00000000	      0.00000000	      0.00000000	      0.00000000	      0.00000000	      0.00000000
     22.50200000	     87.79845997	    168.11163099	     -5.00896274	      1.79093202	      0.00000000	      1.06600418	     -0.00000000	      0.28597221	     -0.00000000	      0.00000000	      0.00000000	      0.00000000	      0.00000000	      0.00000000	      0.00000000	      0.00000000	      0.00000000	      0.00000000
     22.50300000	     84.36203250	    158.03423462	     -5.41969620	      1.79016490	      0.00000000	      1.06571916	     -0.00000000	      0.58426488	     -0.00000000	      0.00000000	      0.00000000	      0.00000000	      0.00000000	      0.00000000	      0.00000000	      0.00000000	      0.00000000	      0.00000000
     22.50400000	     81.06227226	    148.63484476	     -5.82612718	      1.78950108	      0.00000000	      1.06542659	     -0.00000000	      0.88418018	     -0.00000000	      0.00000000	      0.00000000	      0.00000000	      0.00000000	      0.00000000	      0.00000000	      0.00000000	      0.00000000	      0.00000000
     22.50500000	     77.83084564	    139.57445814	     -6.23040692	      1.78888892	      0.00000000	      1.06513026	     -0.00000000	      1.18490680	     -0.00000000	      0.00000000	      0.00000000	      0.00000000	      0.00000000	      0.00000000	      0.00000000	      0.00000000	      0.00000000	      0.00000000
     22.50600000	     74.59941901	    130.51407153	     -6.63468666	      1.78827675	      0.00000000	      1.06483392	     -0.00000000	      1.48563342	     -0.00000000	      0.00000000	      0.00000000	      0.00000000	      0.00000000	      0.00000000	      0.00000000	      0.00000000	      0.00000000	      0.00000000
     22.50700000	     71.44955213	    121.78956095	     -7.03386140	      1.78771037	      0.00000000	      1.06453628	     -0.00000000	      1.78484419	     -0.00000000	      0.00000000	      0.00000000	      0.00000000	      0.00000000	      0.00000000	      0.00000000	      0.00000000	      0.00000000	      0.00000000
     22.50800000	     68.46280475	    113.73680246	     -7.42282612	      1.78723553	      0.00000000	      1.06423602	     -0.00000000	      2.08102326	     -0.00000000	      0.00000000	      0.00000000	      0.00000000	      0.00000000	      0.00000000	      0.00000000	      0.00000000	      0.00000000	      0.00000000
     22.50900000	     65.47605736	    105.68404396	     -7.81179085	      1.78676069	      0.00000000	      1.06393576	     -0.00000000	      2.37720233	     -0.00000000	      0.00000000	      0.00000000	      0.00000000	      0.00000000	      0.00000000	      0.00000000	      0.00000000	      0.00000000	      0.00000000
     22.51000000	     62.48930997	     97.63128546	     -8.20075557	      1.78628586	      0.00000000	      1.06363551	     -0.00000000	      2.67338139	     -0.00000000	      0.00000000	      0.00000000	      0.00000000	      0.00000000	      0.00000000	      0.00000000	      0.00000000	      0.00000000	      0.00000000
     22.51100000	     59.77759629	     90.56442806	     -8.56668491	      1.78592955	      0.00000000	      1.06333901	     -0.00000000	      2.95835772	     -0.00000000	      0.00000000	      0.00000000	      0.00000000	      0.00000000	      0.00000000	      0.00000000	      0.00000000	      0.00000000	      0.00000000
     22.51200000	     57.06588260	     83.49757066	     -8.93261424	      1.78557324	      0.00000000	      1.06304252	     -0.00000000	      3.24333406	     -0.00000000	      0.00000000	      0.00000000	      0.00000000	      0.00000000	      0.00000000	      0.00000000	      0.00000000	      0.00000000	      0.00000000
     22.51300000	     54.35416891	     76.43071325	     -9.29854357	      1.78521694	      0.00000000	      1.06274603	     -0.00000000	      3.52831039	     -0.00000000	      0.00000000	      0.00000000	      0.00000000	      0.00000000	      0.00000000	      0.00000000	      0.00000000	      0.00000000	      0.00000000
     22.51400000	     51.83956641	     69.99873670	     -9.64485535	      1.78492686	      0.00000000	      1.06245706	     -0.00000000	      3.80178456	     -0.00000000	      0.00000000	      0.00000000	      0.00000000	      0.00000000	      0.00000000	      0.00000000	      0.00000000	      0.00000000	      0.00000000
     22.51500000	     49.42351950	     63.88420057	     -9.98135834	      1.78466991	      0.00000000	      1.06217186	     -0.00000000	      4.06950766	     -0.00000000	      0.00000000	      0.00000000	      0.00000000	      0.00000000	      0.00000000	      0.00000000	      0.00000000	      0.00000000	      0.00000000
     22.51600000	     47.00747260	     57.76966444	    -10.31786134	      1.78441295	      0.00000000	      1.06188666	     -0.00000000	      4.33723076	     -0.00000000	      0.00000000	      0.00000000	      0.00000000	      0.00000000	      0.00000000	      0.00000000	      0.00000000	      0.00000000	      0.00000000
     22.51700000	     40.85709719	     48.32397632	     -9.48797701	      1.60581748	      0.00000000	      0.95552687	     -0.00000000	      4.06414154	     -0.00000000	      0.00000000	      0.00000000	      0.00000000	      0.00000000	      0.00000000	      0.00000000	      0.00000000	      0.00000000	      0.00000000
     22.51800000	     27.23806480	     32.21598422	     -6.32531800	      1.07054499	      0.00000000	      0.63701792	     -0.00000000	      2.70942770	     -0.00000000	      0.00000000	      0.00000000	      0.00000000	      0.00000000	      0.00000000	      0.00000000	      0.00000000	      0.00000000	      0.00000000
     22.51900000	     13.61903240	     16.10799211	     -3.16265900	      0.53527249	      0.00000000	      0.31850896	     -0.00000000	      1.35471385	     -0.00000000	      0.00000000	      0.00000000	      0.00000000	      0.00000000	      0.00000000	      0.00000000	      0.00000000	      0.00000000	      0.00000000
     22.52000000	      0.00000000	      0.00000000	     -0.00000000	      0.00000000	      0.00000000	      0.00000000	     -0.00000000	      0.00000000	     -0.00000000	      0.00000000	      0.00000000	      0.00000000	      0.00000000	      0.00000000	      0.00000000	      0.00000000	      0.00000000	      0.00000000
     22.52100000	      0.00000000	      0.00000000	      0.00000000	      0.00000000	      0.00000000	      0.00000000	      0.00000000	      0.00000000	      0.00000000	      0.00000000	      0.00000000	      0.00000000	      0.00000000	      0.00000000	      0.00000000	      0.00000000	      0.00000000	      0.00000000
